<svg xmlns="http://www.w3.org/2000/svg" width="242" height="242" viewBox="0 0 242 242" shape-rendering="geometricPrecision" text-rendering="geometricPrecision" image-rendering="optimizeQuality" fill-rule="evenodd" clip-rule="evenodd"><defs><style>.fil0{fill:#2b2a29;fill-rule:nonzero}</style></defs><path class="fil0" d="M121 0c33 0 64 14 86 35 21 22 35 53 35 86s-14 64-35 86c-22 21-53 35-86 35s-64-14-86-35c-21-22-35-53-35-86s14-64 35-86C57 14 88 0 121 0zM45 195v-1c0-20 9-39 22-52 7-7 16-13 26-17l-3-3c-8-8-13-19-13-31 0-13 5-24 13-32s19-13 31-13 23 5 31 13 13 19 13 32c0 12-5 23-13 31l-3 3c10 4 19 10 26 17 13 13 22 32 22 52v1c18-19 30-45 30-74s-12-56-31-75-46-31-75-31-56 12-75 31-31 46-31 75 12 55 30 74zm137 13v-14c0-16-7-31-18-41-10-11-25-18-41-18h-4c-16 0-31 7-41 18-11 10-18 25-18 41v14c18 12 38 19 61 19s43-7 61-19zM142 70c-6-5-13-9-21-9s-15 4-21 9c-5 5-8 13-8 21s3 15 8 20c6 5 13 9 21 9s15-4 21-9c5-5 8-12 8-20s-3-16-8-21z" id="Слой_x0020_1"/></svg>