<svg xmlns="http://www.w3.org/2000/svg" width="296" height="247" viewBox="0 0 296 247" shape-rendering="geometricPrecision" text-rendering="geometricPrecision" image-rendering="optimizeQuality" fill-rule="evenodd" clip-rule="evenodd"><defs><style>.fil0{fill:#434242}</style></defs><g id="Слой_x0020_1"><g id="_767175056"><path class="fil0" d="M14 40h30v34c0 6 5 12 12 12h186c6 0 10-5 10-10V40h30c8 0 14 6 14 14v179c0 8-6 14-14 14H14c-8 0-14-6-14-14V54c0-8 6-14 14-14zm44 82h180c8 0 14 6 14 14v63c0 8-6 14-14 14H58c-8 0-14-6-14-14v-63c0-8 6-14 14-14z"/><path class="fil0" d="M67 0h25c5 0 9 4 9 8v59c0 4-4 8-9 8H67c-5 0-9-4-9-8V8c0-4 4-8 9-8zm135 0h26c4 0 8 4 8 8v59c0 4-4 8-8 8h-26c-4 0-8-4-8-8V8c0-4 4-8 8-8zm-67 0h25c4 0 8 4 8 8v58c0 5-4 8-8 8h-25c-5 0-9-3-9-8V8c0-4 4-8 9-8z"/></g></g></svg>