<svg xmlns="http://www.w3.org/2000/svg" width="277" height="277" viewBox="0 0 277 277" shape-rendering="geometricPrecision" text-rendering="geometricPrecision" image-rendering="optimizeQuality" fill-rule="evenodd" clip-rule="evenodd"><defs><style>.fil0{fill:#000}</style></defs><g id="Слой_x0020_1"><path class="fil0" d="M274 257l-67-66c16-20 26-46 26-74C233 52 181 0 117 0 52 0 0 52 0 117c0 64 52 116 117 116 28 0 54-9 74-26l66 67c5 4 12 4 17 0 4-5 4-12 0-17zm-157-47c-52 0-94-42-94-93 0-52 42-94 94-94 51 0 93 42 93 94 0 51-42 93-93 93z" id="magnifying-glass.svg"/></g></svg>