<svg xmlns="http://www.w3.org/2000/svg" width="245" height="288" viewBox="0 0 245 288" shape-rendering="geometricPrecision" text-rendering="geometricPrecision" image-rendering="optimizeQuality" fill-rule="evenodd" clip-rule="evenodd"><defs><style>.fil0{fill:#2b2a29;fill-rule:nonzero}</style></defs><path class="fil0" d="M123 0c19 0 37 8 49 20 13 13 21 31 21 50 0 20-8 37-21 50-3 3-6 5-9 8 18 6 34 16 47 29 22 21 35 51 35 84v47H0v-47c0-33 13-63 35-84 13-13 29-23 47-29-3-3-6-5-9-8-13-13-21-30-21-50 0-19 8-37 21-50C85 8 103 0 123 0zm35 35c-9-10-22-15-35-15-14 0-27 5-36 15-9 9-15 21-15 35s6 27 15 36 22 15 36 15c13 0 26-6 35-15s15-22 15-36-6-26-15-35zm-33 106h-5c-27 0-52 12-71 30-18 18-29 43-29 70v27h205v-27c0-27-11-52-29-70-19-18-44-30-71-30z" id="Слой_x0020_1"/></svg>